<svg width="467" height="158" viewBox="0 0 467 158" fill="none" xmlns="http://www.w3.org/2000/svg">
<circle cx="228" cy="85.9999" r="18" fill="#1D1D1B"/>
<line x1="3.00024" y1="85.9999" x2="463.039" y2="85.9999" stroke="#1D1D1B" stroke-width="6" stroke-linecap="round"/>
<line x1="229" y1="16.9999" x2="229" y2="155" stroke="#1D1D1B" stroke-width="6" stroke-linecap="round"/>
<path d="M269 127.5C283.636 127.5 295.501 115.188 295.501 99.9998C295.501 115.188 307.366 127.5 322 127.5C307.366 127.5 295.501 139.812 295.501 155C295.501 139.812 283.636 127.5 269 127.5Z" stroke="#1D1D1B" stroke-width="6" stroke-linejoin="round"/>
<path d="M137 30.5004C152.188 30.5004 164.501 18.1879 164.501 2.99979C164.501 18.1879 176.813 30.5004 192 30.5004C176.813 30.5004 164.501 42.8117 164.501 57.9999C164.501 42.8117 152.188 30.5004 137 30.5004Z" stroke="#1D1D1B" stroke-width="6" stroke-linejoin="round"/>
<circle cx="228" cy="85.9999" r="42" stroke="#1D1D1B" stroke-width="6"/>
</svg>
