<svg width="466" height="292" viewBox="0 0 466 292" fill="none" xmlns="http://www.w3.org/2000/svg">
<path d="M209 193.501C223.636 193.501 235.501 181.188 235.501 166C235.501 181.188 247.366 193.501 262 193.501C247.366 193.501 235.501 205.812 235.501 221C235.501 205.812 223.636 193.501 209 193.501Z" stroke="#1D1D1B" stroke-width="6" stroke-linejoin="round"/>
<path d="M207 96.5006C222.189 96.5006 234.501 84.1881 234.501 69C234.501 84.1881 246.813 96.5006 262 96.5006C246.813 96.5006 234.501 108.812 234.501 124C234.501 108.812 222.189 96.5006 207 96.5006Z" stroke="#1D1D1B" stroke-width="6" stroke-linejoin="round"/>
<path d="M184.592 48.5935C211.429 75.4308 254.942 75.4308 281.779 48.5935C254.942 75.4308 254.942 118.943 281.777 145.778C254.942 118.943 211.432 118.941 184.594 145.778C211.432 118.941 211.429 75.4308 184.592 48.5935Z" stroke="#1D1D1B" stroke-width="6" stroke-linejoin="round"/>
<path d="M184.592 145.593C211.429 172.431 254.942 172.431 281.779 145.593C254.942 172.431 254.942 215.943 281.777 242.778C254.942 215.943 211.432 215.941 184.594 242.778C211.432 215.941 211.429 172.431 184.592 145.593Z" stroke="#1D1D1B" stroke-width="6" stroke-linejoin="round"/>
<circle cx="234.001" cy="146" r="18" fill="#1D1D1B"/>
<line x1="3.00049" y1="146" x2="185" y2="146" stroke="#1D1D1B" stroke-width="6" stroke-linecap="round"/>
<line x1="281" y1="146" x2="463" y2="146" stroke="#1D1D1B" stroke-width="6" stroke-linecap="round"/>
</svg>
