<svg width="976" height="272" viewBox="0 0 976 272" fill="none" xmlns="http://www.w3.org/2000/svg">
<path d="M3.00024 136C35.3003 89.3336 67.6003 89.3336 99.9003 136C132.2 182.667 164.5 182.667 196.8 136C229.1 89.3336 261.401 89.3336 293.701 136C326.001 182.667 358.301 182.667 390.601 136C422.901 89.3336 455.201 89.3336 487.501 136C519.801 182.667 552.101 182.667 584.401 136C616.701 89.3336 649.001 89.3336 681.301 136C713.601 182.667 745.901 182.667 778.201 136C810.501 89.3336 842.801 89.3336 875.101 136C907.401 182.667 939.701 182.667 972.001 136" stroke="#1D1D1B" stroke-width="6" stroke-linecap="round"/>
<path d="M3.00024 234C35.3003 187.334 67.6003 187.334 99.9003 234C132.2 280.667 164.5 280.667 196.8 234C229.1 187.334 261.401 187.334 293.701 234C326.001 280.667 358.301 280.667 390.601 234C422.901 187.334 455.201 187.334 487.501 234C519.801 280.667 552.101 280.667 584.401 234C616.701 187.334 649.001 187.334 681.301 234C713.601 280.667 745.901 280.667 778.201 234C810.501 187.334 842.801 187.334 875.101 234C907.401 280.667 939.701 280.667 972.001 234" stroke="#1D1D1B" stroke-width="6" stroke-linecap="round"/>
<path d="M3.00024 38.0002C35.3003 -8.66642 67.6003 -8.66642 99.9003 38.0002C132.2 84.6669 164.5 84.6669 196.8 38.0002C229.1 -8.66642 261.401 -8.66642 293.701 38.0002C326.001 84.6669 358.301 84.6669 390.601 38.0002C422.901 -8.66642 455.201 -8.66642 487.501 38.0002C519.801 84.6669 552.101 84.6669 584.401 38.0002C616.701 -8.66642 649.001 -8.66642 681.301 38.0002C713.601 84.6669 745.901 84.6669 778.201 38.0002C810.501 -8.66642 842.801 -8.66642 875.101 38.0002C907.401 84.6669 939.701 84.6669 972.001 38.0002" stroke="#1D1D1B" stroke-width="6" stroke-linecap="round"/>
</svg>
