<svg width="250" height="351" viewBox="0 0 250 351" fill="none" xmlns="http://www.w3.org/2000/svg">
<path fill-rule="evenodd" clip-rule="evenodd" d="M125.936 139.085C159.663 135.025 196.064 141.99 218.556 167.376C242.187 194.047 250.168 232.949 239.069 266.773C228.899 297.768 196.081 311.102 166.696 325.421C136.981 339.9 106.205 357.3 74.8554 346.791C39.1276 334.813 4.28078 306.997 0.268519 269.626C-3.50245 234.502 33.1398 212.227 57.6724 186.743C77.9104 165.721 96.922 142.577 125.936 139.085Z" fill="#F2CC8F"/>
<path d="M147.272 273.792C147.096 273.33 146.909 272.868 146.689 272.405L247.251 214.3L247.954 213.892V209.754L245.854 210.965L144.897 269.301C144.611 268.883 144.303 268.487 143.984 268.102L247.537 164.449L247.954 164.042V158.957L245.568 161.356L141.444 265.57C141.059 265.24 140.652 264.932 140.245 264.645L247.768 78.2646L247.954 77.9454V70.7579L245.337 75.2927L137.144 262.851L136.759 262.675L168.399 144.482L168.531 143.976L169.41 140.674L205.702 4.94725L206.417 2.29457L206.769 0.940719L205.482 0.577489L204.712 0.368357L203.36 0.00512695L202.997 1.35898L202.238 4.22079L166.991 135.875L132.459 79.3763V3.17513H126.102V78.6389L92.0979 135.787L56.8729 4.22079L56.1141 1.35898L55.7512 0.00512695L54.3985 0.368357L53.6396 0.577489L52.2869 0.940719L52.6499 2.29457L53.3537 4.94725L89.5355 140.091L89.6894 140.663L90.9761 145.462L91.834 148.665L122.297 262.279C121.835 262.444 121.373 262.642 120.911 262.851L12.6629 75.2927L10.0565 70.7579V77.9454L10.2435 78.2646L117.755 264.645C117.348 264.932 116.941 265.24 116.556 265.559L12.443 161.356L10.0565 158.968V164.009L10.4634 164.416L114.027 268.069C113.697 268.454 113.4 268.85 113.103 269.268L12.1461 210.932L10.0565 209.721V213.859L10.7494 214.267L111.3 272.405C111.091 272.857 110.893 273.33 110.728 273.792L26.6848 251.261L25.1781 250.854L11.8161 247.265L10.0565 246.803V250.513L11.0903 250.799L23.2975 254.101L10.2435 276.335L9.57264 277.436L9.3197 277.876L9.16574 278.129L8.71484 278.911L8 280.121L9.20973 280.826L10.0565 281.321V283.798H109.804C110.58 288.341 112.94 292.463 116.465 295.43C119.99 298.397 124.452 300.018 129.058 300.005C133.663 299.992 138.116 298.345 141.623 295.358C145.131 292.371 147.468 288.236 148.218 283.688H247.954V281.321L248.79 280.826L250 280.121L249.296 278.911L248.779 278.03L248.372 277.337L247.757 276.291L234.713 254.024L246.91 250.722L247.954 250.436V246.726L246.195 247.188L147.272 273.792ZM148.207 277.193L228.346 255.697L241.004 277.381H148.218C148.218 277.381 148.207 277.303 148.207 277.27V277.193ZM132.459 261.299V91.8032L164.67 144.516L133.295 261.553L132.459 261.299ZM126.102 261.211L125.717 261.266L94.3964 144.361L126.102 91.0657V261.211ZM109.771 277.48H16.941L29.6541 255.774L109.804 277.27L109.771 277.48Z" fill="#1D1E1C"/>
</svg>
