<svg width="278" height="328" viewBox="0 0 278 328" fill="none" xmlns="http://www.w3.org/2000/svg">
<path fill-rule="evenodd" clip-rule="evenodd" d="M44.4777 153.553C59.1744 126.891 89.2751 111.647 119.747 110.217C150.553 108.772 179.841 122.934 200.078 146.254C220.354 169.62 233.588 201.445 224.493 230.921C216.155 257.944 185.751 268.312 159.307 278.388C137.98 286.514 115.074 289.912 94.195 280.568C73.5849 271.345 61.4405 251.92 53.217 230.911C43.2569 205.465 31.3179 177.427 44.4777 153.553Z" fill="#F2CC8F"/>
<path d="M243.829 76.5449H235.619C234.5 76.5449 233.426 76.9895 232.635 77.7809C231.844 78.5723 231.399 79.6457 231.399 80.7649V208.475H248.009V80.7649C248.009 79.6526 247.57 78.5852 246.787 77.795C246.004 77.0047 244.941 76.5555 243.829 76.5449V76.5449Z" stroke="#1D1E1C" stroke-width="8" stroke-miterlimit="10"/>
<path d="M77.259 76.5449H85.469C86.5882 76.5449 87.6616 76.9895 88.453 77.7809C89.2444 78.5723 89.689 79.6457 89.689 80.7649V207.465H73.009V80.7649C73.009 80.2082 73.1192 79.657 73.3331 79.143C73.5471 78.6291 73.8606 78.1625 74.2556 77.7703C74.6507 77.378 75.1194 77.0678 75.6349 76.8575C76.1504 76.6472 76.7023 76.5409 77.259 76.5449Z" stroke="#1D1E1C" stroke-width="8" stroke-miterlimit="10"/>
<path d="M190.069 234.005V220.395H271.009V225.545C271.009 230.225 266.219 234.015 260.309 234.015L190.069 234.005Z" stroke="#1D1E1C" stroke-width="8" stroke-miterlimit="10"/>
<path d="M50.0791 225.545V220.395H130.679V234.005H60.7291C54.8491 234.005 50.0791 230.225 50.0791 225.545Z" stroke="#1D1E1C" stroke-width="8" stroke-miterlimit="10"/>
<path d="M48.299 63.005L160.159 4.09495C160.279 4.03586 160.41 4.00513 160.544 4.00513C160.678 4.00513 160.809 4.03586 160.929 4.09495L272.789 63.525C273.349 63.825 273.039 64.4349 272.329 64.4249L48.749 63.935C48.009 63.935 47.739 63.325 48.299 63.005Z" stroke="#1D1E1C" stroke-width="8" stroke-miterlimit="10"/>
<path d="M117.889 47.705L159.329 23.575C159.598 23.4253 159.901 23.3467 160.209 23.3467C160.517 23.3467 160.82 23.4253 161.089 23.575L202.509 47.855C203.589 48.485 202.989 49.795 201.619 49.795L118.769 49.655C117.399 49.655 116.809 48.345 117.889 47.705Z" stroke="#1D1E1C" stroke-width="8" stroke-miterlimit="10"/>
<path d="M171.989 220.805H150.919V233.185H171.989V220.805Z" stroke="#1D1E1C" stroke-width="8" stroke-miterlimit="10"/>
<path d="M212.109 76.2949H108.559C104.831 76.2949 101.809 79.317 101.809 83.0449V200.715C101.809 204.443 104.831 207.465 108.559 207.465H212.109C215.837 207.465 218.859 204.443 218.859 200.715V83.0449C218.859 79.317 215.837 76.2949 212.109 76.2949Z" stroke="#1D1E1C" stroke-width="8" stroke-miterlimit="10"/>
<path d="M160.539 166.565V207.515" stroke="#1D1E1C" stroke-width="8" stroke-miterlimit="10"/>
<path d="M160.539 76.205V116.175" stroke="#1D1E1C" stroke-width="8" stroke-miterlimit="10"/>
<path d="M188.669 143.135C188.669 143.135 176.419 156.505 161.299 156.505C146.179 156.505 133.929 143.135 133.929 143.135C133.929 143.135 146.189 129.765 161.299 129.765C176.409 129.765 188.669 143.135 188.669 143.135Z" stroke="#1D1E1C" stroke-width="8" stroke-miterlimit="10"/>
<path d="M161.139 152.285C166.38 152.285 170.629 148.036 170.629 142.795C170.629 137.554 166.38 133.305 161.139 133.305C155.898 133.305 151.649 137.554 151.649 142.795C151.649 148.036 155.898 152.285 161.139 152.285Z" fill="#1D1E1C" stroke="#1D1E1C" stroke-width="8" stroke-miterlimit="10"/>
</svg>
