<svg width="251" height="295" viewBox="0 0 251 295" fill="none" xmlns="http://www.w3.org/2000/svg">
<path fill-rule="evenodd" clip-rule="evenodd" d="M199.595 142.623C213.183 167.59 222.604 198.441 208.598 223.175C195.026 247.14 163.549 249.323 136.436 254.155C110.804 258.723 83.5346 264.387 62.3596 249.238C39.6509 232.992 27.805 204.991 28.7041 177.084C29.589 149.616 44.4086 124.462 66.8889 108.656C88.2596 93.6295 115.358 91.8826 140.667 98.3607C165.706 104.77 187.239 119.922 199.595 142.623Z" fill="#F2CC8F"/>
<path d="M220.05 179.185L131.27 225.405L43.8799 181.025V110.075L112.53 145.835L131.27 119.155L154.39 144.105L218.9 111.795L220.05 179.185Z" stroke="#1D1E1C" stroke-width="8" stroke-miterlimit="10"/>
<path d="M131.27 119.155L112.53 145.835L43.88 110.075L22.49 97.5351L44.45 75.5751L130.58 118.805L131.27 119.155Z" stroke="#1D1E1C" stroke-width="8" stroke-miterlimit="10"/>
<path d="M243.51 99.3751L218.9 111.795L154.39 144.105L131.27 119.155L219.7 76.4951L243.51 99.3751Z" stroke="#1D1E1C" stroke-width="8" stroke-miterlimit="10"/>
<path d="M243.51 53.4951L219.7 76.4951L131.27 119.155L130.58 32.6751L151.05 6.00513L243.51 53.4951Z" stroke="#1D1E1C" stroke-width="8" stroke-miterlimit="10"/>
<path d="M130.64 119.135L131.27 119.155V225.405" stroke="#1D1E1C" stroke-width="8" stroke-miterlimit="10"/>
<path d="M130.58 32.6751L131.27 119.155L44.45 75.5751L21 52.1151L111.03 6.00513L130.58 32.6751Z" stroke="#1D1E1C" stroke-width="8" stroke-miterlimit="10"/>
<path d="M44.45 75.5751L130.58 32.6751L219.7 76.4951" stroke="#1D1E1C" stroke-width="8" stroke-miterlimit="10"/>
<path d="M131.27 119.155L130.58 32.6751" stroke="#1D1E1C" stroke-width="8" stroke-miterlimit="10"/>
</svg>
