<svg width="269" height="333" viewBox="0 0 269 333" fill="none" xmlns="http://www.w3.org/2000/svg">
<path fill-rule="evenodd" clip-rule="evenodd" d="M117.282 104.397C154.855 101.466 198.338 93.2847 223.385 121.42C249.198 150.415 239.387 194.001 230.727 231.83C222.074 269.628 211.959 313.162 176.096 327.981C141.342 342.343 106.387 315.026 73.4957 296.804C44.1054 280.522 11.6937 264.452 2.92023 232.039C-6.18169 198.413 6.84973 162.451 30.1034 136.497C51.836 112.241 84.7976 106.931 117.282 104.397Z" fill="#F2CC8F"/>
<path d="M145.691 131.182C166.478 131.182 183.328 114.331 183.328 93.5451C183.328 72.7587 166.478 55.908 145.691 55.908C124.905 55.908 108.054 72.7587 108.054 93.5451C108.054 114.331 124.905 131.182 145.691 131.182Z" stroke="#1D1E1C" stroke-width="6" stroke-miterlimit="10"/>
<path d="M227.264 84.5872C227.283 96.6074 224.633 108.482 219.505 119.354L145.691 300.486L71.8839 119.354C66.6731 108.293 64.0151 96.2026 64.1063 83.9764C64.1975 71.7502 67.0357 59.7008 72.411 48.7193C77.7863 37.7377 85.5612 28.1048 95.1608 20.5328C104.76 12.9608 115.939 7.64332 127.871 4.97364C139.802 2.30395 152.181 2.35029 164.093 5.10923C176.004 7.86818 187.143 13.2692 196.685 20.9128C206.228 28.5565 213.931 38.2474 219.223 49.2689C224.516 60.2904 227.264 72.3607 227.264 84.5872V84.5872Z" stroke="#1D1E1C" stroke-width="6" stroke-miterlimit="10"/>
<path d="M145.691 300.486V3.16248" stroke="#1D1E1C" stroke-width="6" stroke-miterlimit="10"/>
<path d="M64.1179 93.545H227.264" stroke="#1D1E1C" stroke-width="6" stroke-miterlimit="10"/>
<path d="M183.293 209.228C183.293 209.228 202.605 232.702 210.547 232.702C218.489 232.702 235.291 222.771 240.877 217.185C245.017 213.051 240.087 207.141 237.223 204.34C236.772 203.896 236.167 203.642 235.534 203.628C234.901 203.615 234.286 203.845 233.816 204.27C229.584 208.107 218.235 217.671 212.875 215.026C206.209 211.768 190.304 191.976 190.304 191.976" stroke="#1D1E1C" stroke-width="6" stroke-miterlimit="10"/>
<path d="M238.493 205.603C238.493 205.603 241.879 199.198 244.608 197.752C247.338 196.306 249.101 197.59 251.351 195.982C253.601 194.374 255.583 191.969 255.682 190.128C255.781 188.287 255.922 186.114 256.564 185.635C257.206 185.155 262.503 183.624 263.709 185.635C264.915 187.645 266.037 188.978 264.915 191.983C263.794 194.987 262.341 198.733 260.5 200.179C258.659 201.625 249.821 207.324 248.057 208.043C246.294 208.763 242.274 211.838 242.274 211.838C242.274 211.838 241.512 208.594 240.249 207.796C239.456 207.259 238.844 206.494 238.493 205.603Z" stroke="#1D1E1C" stroke-width="6" stroke-miterlimit="10"/>
<path d="M108.054 209.228C108.054 209.228 88.777 232.702 80.7996 232.702C72.8221 232.702 56.0632 222.771 50.4698 217.185C46.3365 213.051 51.2669 207.141 54.1235 204.34C54.5752 203.896 55.1796 203.642 55.8129 203.628C56.4462 203.615 57.0606 203.845 57.5303 204.27C61.7624 208.107 73.1113 217.671 78.4719 215.026C85.1374 211.768 101.043 191.976 101.043 191.976" stroke="#1D1E1C" stroke-width="6" stroke-miterlimit="10"/>
<path d="M52.8821 205.603C52.8821 205.603 49.4964 199.198 46.7668 197.752C44.0371 196.306 42.2737 197.59 40.0307 195.982C37.7877 194.374 35.7987 191.969 35.6929 190.128C35.5871 188.287 35.453 186.114 34.8112 185.635C34.1693 185.155 28.8722 183.624 27.6661 185.635C26.4599 187.645 25.3384 188.978 26.467 191.983C27.5955 194.987 29.0344 198.733 30.8824 200.179C32.7304 201.625 41.5543 207.324 43.3176 208.043C45.081 208.763 49.1014 211.838 49.1014 211.838C49.1014 211.838 49.8632 208.594 51.1258 207.796C51.9189 207.259 52.5311 206.494 52.8821 205.603V205.603Z" stroke="#1D1E1C" stroke-width="6" stroke-miterlimit="10"/>
</svg>
