<svg xmlns="http://www.w3.org/2000/svg" viewBox="0 0 716.07 716.08"><defs><style>.cls-1{fill:none;stroke:#1d1d1b;stroke-miterlimit:10;stroke-width:38.35px;}</style></defs><g id="Calque_2" data-name="Calque 2"><g id="Calque_1-2" data-name="Calque 1"><path class="cls-1" d="M361.57,23.28C381.73,43.43,322.35,135.53,228.89,229S43.43,381.73,23.28,361.57c-2.62-2.62-3.89-6.59-3.89-11.66.18-2.53.36-4.33.54-5.42,0-.36.1-.81.09-1,3.26-18.08,18.17-46,41.94-78.81,23.59-32.81,56-70.68,94-108.64C232.06,80,307.25,26.44,343.5,20c.18,0,.63-.08,1-.09,1.09-.18,2.89-.36,5.42-.54C355,19.39,359,20.66,361.57,23.28Z"/><path class="cls-1" d="M415.44,41.17l120,120A643.63,643.63,0,0,1,388.33,388.42,648.78,648.78,0,0,1,284,473,634.39,634.39,0,0,1,161.2,535.46l-120-120a64.41,64.41,0,0,1-10.66-13.92c-11.39-19.34-11.84-41.12-11.12-51.61,0,5.07,1.27,9,3.89,11.66C43.43,381.73,135.53,322.35,228.89,229S381.73,43.43,361.57,23.28c-2.62-2.62-6.59-3.89-11.66-3.89,10.49-.72,32.27-.27,51.61,11.12A64.41,64.41,0,0,1,415.44,41.17Z"/><path class="cls-1" d="M696.88,190.48c-.63,3.53-1.26,6.87-1.89,10.4-2.53,13.19-5.61,26.21-9.13,38.77-30.91,110.26-89.48,205.71-165,281.26a642.37,642.37,0,0,1-281.17,165c-12.56,3.52-25.58,6.6-38.77,9.13-3.53.63-6.87,1.26-10.4,1.9-6.6-.1-12.38-2.26-15.72-5.61a9.38,9.38,0,0,1-2.9-6.51,2.59,2.59,0,0,1,.09-1.17,292.83,292.83,0,0,0,5.25-60.74,284,284,0,0,0-16-87.4A634.39,634.39,0,0,0,284,473a648.78,648.78,0,0,0,104.3-84.59A643.63,643.63,0,0,0,535.46,161.2a284,284,0,0,0,87.4,16A292.83,292.83,0,0,0,683.6,172a2.59,2.59,0,0,1,1.17-.09C691.37,171.77,696.8,180.09,696.88,190.48Z"/></g></g></svg>