<svg xmlns="http://www.w3.org/2000/svg" viewBox="0 0 709.72 709.73"><defs><style>.cls-1{fill:#3d405b;}.cls-1,.cls-2{stroke:#1d1d1b;stroke-miterlimit:10;stroke-width:32px;}.cls-2{fill:#3f486d;}</style></defs><g id="Calque_2" data-name="Calque 2"><g id="Calque_1-2" data-name="Calque 1"><path class="cls-1" d="M358.4,20.11c20.16,20.15-39.22,112.25-132.68,205.7S40.26,378.56,20.11,358.4c-2.62-2.62-3.89-6.6-3.89-11.66.18-2.53.36-4.34.54-5.42,0-.36.09-.82.09-1,3.26-18.07,18.17-46,41.94-78.81,23.59-32.81,56-70.68,94-108.63,76.1-76.1,151.3-129.61,187.54-136,.19,0,.64-.09,1-.09,1.08-.18,2.89-.36,5.42-.54C351.8,16.22,355.78,17.49,358.4,20.11Z"/><path class="cls-2" d="M412.27,38l120,120A643.53,643.53,0,0,1,385.15,385.24a647.86,647.86,0,0,1-104.3,84.6A635.43,635.43,0,0,1,158,532.29l-120-120a64.09,64.09,0,0,1-10.66-13.92C16,379,15.5,357.22,16.22,346.74c0,5.06,1.27,9,3.89,11.66,20.15,20.16,112.25-39.22,205.61-132.59S378.56,40.26,358.4,20.11c-2.62-2.62-6.6-3.89-11.66-3.89C357.23,15.5,379,16,398.35,27.34A64.09,64.09,0,0,1,412.27,38Z"/><path class="cls-1" d="M693.71,187.31c-.63,3.52-1.26,6.87-1.9,10.39-2.53,13.2-5.6,26.21-9.12,38.78-30.91,110.26-89.48,205.7-165,281.26s-170.91,134-281.17,165c-12.57,3.52-25.58,6.59-38.78,9.13-3.52.63-6.87,1.26-10.39,1.89-6.6-.09-12.38-2.26-15.73-5.6a9.42,9.42,0,0,1-2.89-6.51,2.59,2.59,0,0,1,.09-1.17A292.21,292.21,0,0,0,174,619.69a283.73,283.73,0,0,0-16-87.4,635.43,635.43,0,0,0,122.82-62.45,647.86,647.86,0,0,0,104.3-84.6A643.53,643.53,0,0,0,532.29,158a283.73,283.73,0,0,0,87.4,16,292.21,292.21,0,0,0,60.74-5.24,2.59,2.59,0,0,1,1.17-.09C688.2,168.6,693.62,176.92,693.71,187.31Z"/></g></g></svg>