<svg width="123" height="83" viewBox="0 0 123 83" fill="none" xmlns="http://www.w3.org/2000/svg">
<path d="M70 41.5002C76.0752 41.5002 81.0002 36.3514 81.0002 30C81.0002 36.3514 85.9252 41.5002 92 41.5002C85.9252 41.5002 81.0002 46.6486 81.0002 53C81.0002 46.6486 76.0752 41.5002 70 41.5002Z" stroke="#1D1D1B" stroke-width="4" stroke-linejoin="round"/>
<path d="M29 41.5002C35.0752 41.5002 40.0002 36.3514 40.0002 30C40.0002 36.3514 44.9252 41.5002 51 41.5002C44.9252 41.5002 40.0002 46.6486 40.0002 53C40.0002 46.6486 35.0752 41.5002 29 41.5002Z" stroke="#1D1D1B" stroke-width="4" stroke-linejoin="round"/>
<path d="M20.7356 61.7223C32.039 50.4188 32.039 32.0923 20.7356 20.7888C32.039 32.0923 50.3656 32.0923 61.6682 20.7897C50.3656 32.0923 50.3647 50.418 61.6682 61.7214C50.3647 50.418 32.039 50.4188 20.7356 61.7223Z" stroke="#1D1D1B" stroke-width="4" stroke-linejoin="round"/>
<path d="M61.5905 61.7223C72.894 50.4188 72.894 32.0923 61.5906 20.7888C72.894 32.0923 91.2206 32.0923 102.523 20.7897C91.2206 32.0923 91.2197 50.418 102.523 61.7214C91.2197 50.418 72.894 50.4188 61.5905 61.7223Z" stroke="#1D1D1B" stroke-width="4" stroke-linejoin="round"/>
<circle cx="61.7617" cy="40.9122" r="7.5813" transform="rotate(-90 61.7617 40.9122)" fill="#1D1D1B"/>
</svg>
